HIERARCHY
ROOT SimulationBone
{
	OFFSET 0.000000 0.000000 0.000000
	CHANNELS 6 Xposition Yposition Zposition Zrotation Yrotation Xrotation 
	JOINT Hips
	{
		OFFSET 0.000000 0.000000 0.000000
		CHANNELS 6 Xposition Yposition Zposition Zrotation Yrotation Xrotation 
		JOINT RightUpLeg
		{
			OFFSET 0.103457 1.857818 10.548502
			CHANNELS 3 Zrotation Yrotation Xrotation
			JOINT RightLeg
			{
				OFFSET 43.500000 -0.000011 -0.000004
				CHANNELS 3 Zrotation Yrotation Xrotation
				JOINT RightFoot
				{
					OFFSET 42.372192 -0.000004 -0.000008
					CHANNELS 3 Zrotation Yrotation Xrotation
					JOINT RightToe
					{
						OFFSET 17.300014 0.000006 0.000001
						CHANNELS 3 Zrotation Yrotation Xrotation
						End Site
						{
							OFFSET 0.000000 0.000000 0.000000
						}
					}
				}
			}
		}
		JOINT LeftUpLeg
		{
			OFFSET 0.103457 1.857817 -10.548505
			CHANNELS 3 Zrotation Yrotation Xrotation
			JOINT LeftLeg
			{
				OFFSET 43.500046 -0.000004 0.000011
				CHANNELS 3 Zrotation Yrotation Xrotation
				JOINT LeftFoot
				{
					OFFSET 42.372257 0.000000 0.000015
					CHANNELS 3 Zrotation Yrotation Xrotation
					JOINT LeftToe
					{
						OFFSET 17.300003 -0.000000 0.000002
						CHANNELS 3 Zrotation Yrotation Xrotation
						End Site
						{
							OFFSET 0.000000 0.000000 0.000000
						}
					}
				}
			}
		}
		JOINT Spine
		{
			OFFSET 6.901961 -2.603721 -0.000001
			CHANNELS 3 Zrotation Yrotation Xrotation
			JOINT Spine1
			{
				OFFSET 12.588108 0.000002 -0.000001
				CHANNELS 3 Zrotation Yrotation Xrotation
				JOINT Spine2
				{
					OFFSET 12.343199 -0.000020 0.000006
					CHANNELS 3 Zrotation Yrotation Xrotation
					JOINT Neck
					{
						OFFSET 25.832905 0.000017 0.000000
						CHANNELS 3 Zrotation Yrotation Xrotation
						JOINT Head
						{
							OFFSET 11.766604 -0.000006 0.000004
							CHANNELS 3 Zrotation Yrotation Xrotation
							End Site
							{
								OFFSET 0.000000 0.000000 0.000000
							}
						}
					}
					JOINT RightShoulder
					{
						OFFSET 19.745903 -1.480350 6.000100
						CHANNELS 3 Zrotation Yrotation Xrotation
						JOINT RightArm
						{
							OFFSET 11.284130 -0.000016 -0.000016
							CHANNELS 3 Zrotation Yrotation Xrotation
							JOINT RightForeArm
							{
								OFFSET 33.000046 0.000004 0.000031
								CHANNELS 3 Zrotation Yrotation Xrotation
								JOINT RightHand
								{
									OFFSET 25.199999 0.000027 0.000001
									CHANNELS 3 Zrotation Yrotation Xrotation
									End Site
									{
										OFFSET 0.000000 0.000000 0.000000
									}
								}
							}
						}
					}
					JOINT LeftShoulder
					{
						OFFSET 19.746094 -1.480375 -6.000080
						CHANNELS 3 Zrotation Yrotation Xrotation
						JOINT LeftArm
						{
							OFFSET 11.284131 -0.000016 -0.000017
							CHANNELS 3 Zrotation Yrotation Xrotation
							JOINT LeftForeArm
							{
								OFFSET 33.000095 0.000009 0.000020
								CHANNELS 3 Zrotation Yrotation Xrotation
								JOINT LeftHand
								{
									OFFSET 25.199789 0.000132 0.000423
									CHANNELS 3 Zrotation Yrotation Xrotation
									End Site
									{
										OFFSET 0.000000 0.000000 0.000000
									}
								}
							}
						}
					}
				}
			}
		}
	}
}
MOTION
Frames: 5
Frame Time: 0.016667
-25.061106 0.000000 324.799467 180.000000 -39.020717 180.000000 -1.406725 87.393692 -0.996498 91.784430 -0.696883 -179.320687 -165.493421 -3.711902 151.781228 -23.874236 -2.637666 -8.322723 80.603970 2.029867 -16.896151 21.454555 0.003112 0.000017 149.744329 7.235311 -156.285260 -38.970613 -1.217877 12.672880 76.610440 -7.711453 4.726708 21.454553 -0.003091 -0.000001 8.194031 0.131923 -0.943103 6.372659 0.315447 -1.877527 6.054730 0.303959 -1.879400 17.188265 10.981775 -1.449067 -12.007636 -3.652849 -0.138855 -155.707397 -73.549638 -26.327995 -5.889330 59.819198 6.013562 -65.854047 -12.638899 2.195788 8.187869 -5.815008 9.748647 -168.433215 80.165602 13.308567 -36.976946 -57.546842 32.232092 -86.324772 4.755742 -2.475454 7.390334 18.759728 -2.356896 
-26.331515 0.000000 325.215814 180.000000 -35.643204 180.000000 -1.341618 86.819153 -0.335162 91.743013 -0.285631 -179.402695 -165.263396 -4.104049 150.249772 -26.105420 -1.995293 -9.038668 80.815459 2.286382 -18.143279 21.454554 0.003096 0.000012 150.603681 5.861215 -154.980352 -37.737524 -1.500558 12.818043 75.410281 -7.515883 5.710711 21.454552 -0.003092 -0.000000 8.162534 0.081373 -0.892560 6.310589 0.211159 -1.779370 5.992661 0.200272 -1.780613 17.618880 11.491035 -0.963058 -12.143629 -4.438098 0.593227 -154.613584 -72.838238 -27.465931 0.378033 59.452962 12.632069 -63.003694 -13.092929 2.111305 8.807216 -6.145839 8.389633 -167.989194 80.389636 13.759004 -40.609811 -56.769579 32.293973 -82.959699 6.804143 -2.458796 6.469691 18.083328 -6.748414 
-27.656568 0.000000 325.598877 180.000000 -32.299091 180.000000 -1.290942 86.262573 0.256576 91.711955 0.423335 -179.567750 -165.556409 -5.115203 148.707957 -29.440741 -1.052482 -9.589789 79.282718 1.791010 -20.756622 21.454557 0.003097 0.000013 151.361431 4.254898 -154.328097 -37.424795 -0.488332 12.168131 75.730705 -8.037145 2.186215 21.454551 -0.003092 -0.000000 8.134451 0.082528 -0.781153 6.254650 0.207035 -1.556717 5.936689 0.197496 -1.557940 17.868764 11.889251 -0.553803 -12.268801 -5.137243 1.233528 -153.954620 -72.147223 -28.159012 5.485002 58.630096 18.839204 -59.556250 -13.343987 2.002016 9.528705 -6.136760 7.008496 -167.046085 80.471636 14.716016 -43.888291 -55.960117 31.973443 -79.460282 8.796340 -2.458533 5.460454 17.459707 -11.193370 
-29.033915 0.000000 325.949139 180.000000 -29.004307 180.000000 -1.222610 85.721200 0.783181 91.777285 1.298241 -179.818298 -166.279667 -6.451081 147.511765 -33.753427 0.114463 -10.211347 76.826762 1.127497 -23.167112 21.454560 0.003106 0.000016 152.026720 2.500273 -154.259913 -37.932172 1.087663 11.081443 77.108407 -8.667380 -3.148175 21.454550 -0.003092 -0.000000 8.132572 0.120607 -0.624280 6.250818 0.274673 -1.241156 5.932807 0.267039 -1.242796 17.938245 12.146173 -0.214954 -12.384666 -5.753409 1.791109 -153.656684 -71.485922 -28.481553 9.356946 57.608976 24.480618 -55.652616 -13.378061 1.865231 10.173512 -5.706017 5.904460 -166.141930 80.479220 15.633605 -46.735638 -55.152197 31.412491 -76.019663 10.610184 -2.443220 4.696752 16.731980 -15.458730 
-30.461208 0.000000 326.267085 180.000000 -25.773136 180.000000 -1.104791 85.192284 1.240293 92.009169 2.199931 179.846792 -167.373745 -7.799495 147.020162 -38.933536 1.402899 -11.136620 74.198618 1.045791 -23.848483 21.454563 0.003112 0.000019 152.610413 0.676692 -154.705724 -39.139223 2.481417 9.898096 78.971316 -8.835665 -7.536814 21.454551 -0.003091 0.000000 8.179700 0.180660 -0.437272 6.345133 0.384980 -0.864020 6.027070 0.379621 -0.866334 17.828069 12.230828 0.061049 -12.493367 -6.289554 2.275130 -153.659010 -70.861229 -28.494808 12.082317 56.640697 29.563909 -51.433953 -13.180151 1.705971 10.568229 -4.784300 5.375028 -165.803810 80.484886 15.976727 -49.071811 -54.368994 30.755630 -72.837908 12.118722 -2.408951 4.527206 15.796650 -19.309710 
